<?xml version="1.0" encoding="UTF-8" standalone="no"?>
<svg xmlns="http://www.w3.org/2000/svg" viewBox="0 0 128 128" width="128" height="128">
    <!-- Fondo circular -->
    <circle cx="64" cy="64" r="60" fill="#875A7B"/>

    <!-- Silueta de la vaca en blanco -->
    <path d="M94,50 
             C94,50 100,45 102,40
             C104,35 104,30 102,28
             L98,32
             C98,32 92,25 84,25
             C76,25 74,30 74,30
             L64,25
             L54,30
             C54,30 52,25 44,25
             C36,25 30,32 30,32
             L26,28
             C24,30 24,35 26,40
             C28,45 34,50 34,50
             C34,50 30,65 30,75
             C30,85 35,95 45,100
             C55,105 64,105 64,105
             C64,105 73,105 83,100
             C93,95 98,85 98,75
             C98,65 94,50 94,50
             Z" fill="white"/>

    <!-- Ojos -->
    <circle cx="48" cy="60" r="3" fill="#875A7B"/>
    <circle cx="80" cy="60" r="3" fill="#875A7B"/>
</svg> 